<?xml version="1.0" encoding="UTF-8"?>
<svg id="logo" xmlns="http://www.w3.org/2000/svg" xmlns:xlink="http://www.w3.org/1999/xlink" viewBox="0 0 400.04 512.54">
  <defs>
    <style>
      .cls-1 {
        fill: url(#_Безымянный_градиент_432);
      }

      .cls-2 {
        fill: url(#_Безымянный_градиент_285);
      }
    </style>
    <linearGradient id="_Безымянный_градиент_285" data-name="Безымянный градиент 285" x1="24.62" y1="339.14" x2="375.45" y2="-11.69" gradientUnits="userSpaceOnUse">
      <stop offset="0" stop-color="#c8cbff"/>
      <stop offset="1" stop-color="#fff0ff"/>
    </linearGradient>
    <linearGradient id="_Безымянный_градиент_432" data-name="Безымянный градиент 432" x1="60.3" y1="416.05" x2="339.73" y2="136.62" gradientUnits="userSpaceOnUse">
      <stop offset="0" stop-color="#ffbdc6"/>
      <stop offset=".99" stop-color="#ffece3"/>
    </linearGradient>
  </defs>
  <path id="v" class="cls-2" d="m392.98,9.92c1-2.66-.45-5.61-3.17-6.41-10.12-2.98-32.25-7.22-56.21,3.62-29.5,13.34-39.99,39.67-41.87,44.65l-87.12,231.05c-1.59,4.22-7.56,4.22-9.15,0L108.33,51.78C93.35,12.07,50.17-8.76,10.14,3.5c-2.68.82-4.07,3.77-3.08,6.39,62.81,166.49,125.62,332.99,188.44,499.48,1.59,4.22,7.56,4.22,9.15,0,62.78-166.49,125.55-332.97,188.33-499.46Z"/>
  <g id="o">
    <path class="cls-1" d="m151.71,455.97c1.95,5.18-2.85,10.4-8.16,8.84C60.59,440.44,0,363.83,0,272.99c0-39.28,11.37-75.88,30.95-106.78,2.95-4.65,9.98-3.87,11.93,1.29l27.11,71.85c.47,1.26.55,2.62.24,3.93-2.26,9.55-3.55,19.47-3.55,29.71,0,44.62,21.96,84.06,55.62,108.26,1.08.78,1.91,1.84,2.38,3.08l27.03,71.64Zm12.95-317.49c1.18,3.12,4.46,4.89,7.73,4.18,8.91-1.94,18.14-3.01,27.64-3.01s18.73,1.08,27.65,3.01c3.26.71,6.55-1.06,7.73-4.18l18.93-50.22c1.41-3.73-.72-7.88-4.58-8.89-15.9-4.12-32.53-6.41-49.72-6.41s-33.82,2.28-49.72,6.4c-3.86,1-5.99,5.15-4.58,8.89l18.93,50.22Zm192.53,29.06l-27.11,71.89c-.47,1.26-.55,2.62-.24,3.93,2.25,9.53,3.53,19.42,3.53,29.64,0,44.58-21.92,83.98-55.53,108.18-1.07.77-1.91,1.83-2.37,3.07l-27.03,71.7c-1.95,5.18,2.85,10.4,8.16,8.84,82.9-24.4,143.45-100.98,143.45-191.79,0-39.27-11.36-75.86-30.93-106.75-2.95-4.66-9.98-3.87-11.93,1.29h0Z"/>
  </g>
</svg>